<svg width="69" height="10" viewBox="0 0 69 10" fill="none" xmlns="http://www.w3.org/2000/svg">
<path d="M7.388 0.599999V9H6.512V5.124H1.256V9H0.368V0.599999H1.256V4.344H6.512V0.599999H7.388ZM15.4457 6.108H10.1657C10.2137 6.764 10.4657 7.296 10.9217 7.704C11.3777 8.104 11.9537 8.304 12.6497 8.304C13.0417 8.304 13.4017 8.236 13.7297 8.1C14.0577 7.956 14.3417 7.748 14.5817 7.476L15.0617 8.028C14.7817 8.364 14.4297 8.62 14.0057 8.796C13.5897 8.972 13.1297 9.06 12.6257 9.06C11.9777 9.06 11.4017 8.924 10.8977 8.652C10.4017 8.372 10.0137 7.988 9.73372 7.5C9.45372 7.012 9.31372 6.46 9.31372 5.844C9.31372 5.228 9.44572 4.676 9.70972 4.188C9.98172 3.7 10.3497 3.32 10.8137 3.048C11.2857 2.776 11.8137 2.64 12.3977 2.64C12.9817 2.64 13.5057 2.776 13.9697 3.048C14.4337 3.32 14.7977 3.7 15.0617 4.188C15.3257 4.668 15.4577 5.22 15.4577 5.844L15.4457 6.108ZM12.3977 3.372C11.7897 3.372 11.2777 3.568 10.8617 3.96C10.4537 4.344 10.2217 4.848 10.1657 5.472H14.6417C14.5857 4.848 14.3497 4.344 13.9337 3.96C13.5257 3.568 13.0137 3.372 12.3977 3.372ZM17.1919 0.0959995H18.0439V9H17.1919V0.0959995ZM20.4146 0.0959995H21.2666V9H20.4146V0.0959995ZM26.2172 9.06C25.6092 9.06 25.0612 8.924 24.5732 8.652C24.0852 8.372 23.7012 7.988 23.4212 7.5C23.1412 7.012 23.0012 6.46 23.0012 5.844C23.0012 5.228 23.1412 4.676 23.4212 4.188C23.7012 3.7 24.0852 3.32 24.5732 3.048C25.0612 2.776 25.6092 2.64 26.2172 2.64C26.8252 2.64 27.3732 2.776 27.8612 3.048C28.3492 3.32 28.7292 3.7 29.0012 4.188C29.2812 4.676 29.4212 5.228 29.4212 5.844C29.4212 6.46 29.2812 7.012 29.0012 7.5C28.7292 7.988 28.3492 8.372 27.8612 8.652C27.3732 8.924 26.8252 9.06 26.2172 9.06ZM26.2172 8.304C26.6652 8.304 27.0652 8.204 27.4172 8.004C27.7772 7.796 28.0572 7.504 28.2572 7.128C28.4572 6.752 28.5572 6.324 28.5572 5.844C28.5572 5.364 28.4572 4.936 28.2572 4.56C28.0572 4.184 27.7772 3.896 27.4172 3.696C27.0652 3.488 26.6652 3.384 26.2172 3.384C25.7692 3.384 25.3652 3.488 25.0052 3.696C24.6532 3.896 24.3732 4.184 24.1652 4.56C23.9652 4.936 23.8652 5.364 23.8652 5.844C23.8652 6.324 23.9652 6.752 24.1652 7.128C24.3732 7.504 24.6532 7.796 25.0052 8.004C25.3652 8.204 25.7692 8.304 26.2172 8.304ZM46.0133 0.599999L43.1813 9H42.2453L39.7853 1.836L37.3133 9H36.3893L33.5573 0.599999H34.4693L36.8933 7.824L39.4013 0.599999H40.2293L42.7013 7.86L45.1613 0.599999H46.0133ZM49.561 9.06C48.953 9.06 48.405 8.924 47.917 8.652C47.429 8.372 47.045 7.988 46.765 7.5C46.485 7.012 46.345 6.46 46.345 5.844C46.345 5.228 46.485 4.676 46.765 4.188C47.045 3.7 47.429 3.32 47.917 3.048C48.405 2.776 48.953 2.64 49.561 2.64C50.169 2.64 50.717 2.776 51.205 3.048C51.693 3.32 52.073 3.7 52.345 4.188C52.625 4.676 52.765 5.228 52.765 5.844C52.765 6.46 52.625 7.012 52.345 7.5C52.073 7.988 51.693 8.372 51.205 8.652C50.717 8.924 50.169 9.06 49.561 9.06ZM49.561 8.304C50.009 8.304 50.409 8.204 50.761 8.004C51.121 7.796 51.401 7.504 51.601 7.128C51.801 6.752 51.901 6.324 51.901 5.844C51.901 5.364 51.801 4.936 51.601 4.56C51.401 4.184 51.121 3.896 50.761 3.696C50.409 3.488 50.009 3.384 49.561 3.384C49.113 3.384 48.709 3.488 48.349 3.696C47.997 3.896 47.717 4.184 47.509 4.56C47.309 4.936 47.209 5.364 47.209 5.844C47.209 6.324 47.309 6.752 47.509 7.128C47.717 7.504 47.997 7.796 48.349 8.004C48.709 8.204 49.113 8.304 49.561 8.304ZM55.3204 3.924C55.5204 3.5 55.8164 3.18 56.2084 2.964C56.6084 2.748 57.1004 2.64 57.6844 2.64V3.468L57.4804 3.456C56.8164 3.456 56.2964 3.66 55.9204 4.068C55.5444 4.476 55.3564 5.048 55.3564 5.784V9H54.5044V2.688H55.3204V3.924ZM64.9285 0.0959995V9H64.1125V7.752C63.8565 8.176 63.5165 8.5 63.0925 8.724C62.6765 8.948 62.2045 9.06 61.6765 9.06C61.0845 9.06 60.5485 8.924 60.0685 8.652C59.5885 8.38 59.2125 8 58.9405 7.512C58.6685 7.024 58.5325 6.468 58.5325 5.844C58.5325 5.22 58.6685 4.664 58.9405 4.176C59.2125 3.688 59.5885 3.312 60.0685 3.048C60.5485 2.776 61.0845 2.64 61.6765 2.64C62.1885 2.64 62.6485 2.748 63.0565 2.964C63.4725 3.172 63.8125 3.48 64.0765 3.888V0.0959995H64.9285ZM61.7485 8.304C62.1885 8.304 62.5845 8.204 62.9365 8.004C63.2965 7.796 63.5765 7.504 63.7765 7.128C63.9845 6.752 64.0885 6.324 64.0885 5.844C64.0885 5.364 63.9845 4.936 63.7765 4.56C63.5765 4.184 63.2965 3.896 62.9365 3.696C62.5845 3.488 62.1885 3.384 61.7485 3.384C61.3005 3.384 60.8965 3.488 60.5365 3.696C60.1845 3.896 59.9045 4.184 59.6965 4.56C59.4965 4.936 59.3965 5.364 59.3965 5.844C59.3965 6.324 59.4965 6.752 59.6965 7.128C59.9045 7.504 60.1845 7.796 60.5365 8.004C60.8965 8.204 61.3005 8.304 61.7485 8.304ZM67.1693 0.599999H68.1773L67.9973 6.48H67.3373L67.1693 0.599999ZM67.6733 9.06C67.4973 9.06 67.3453 9 67.2173 8.88C67.0973 8.752 67.0373 8.604 67.0373 8.436C67.0373 8.26 67.0973 8.116 67.2173 8.004C67.3373 7.884 67.4893 7.824 67.6733 7.824C67.8493 7.824 67.9973 7.884 68.1173 8.004C68.2373 8.116 68.2973 8.26 68.2973 8.436C68.2973 8.604 68.2373 8.752 68.1173 8.88C67.9973 9 67.8493 9.06 67.6733 9.06Z" fill="black"/>
</svg>
